<svg width="569" height="159" viewBox="0 0 569 159" fill="none" xmlns="http://www.w3.org/2000/svg">
<path d="M83.7122 31.4881C98.5668 36.3599 111.671 45.0565 121.933 56.3855C123.624 54.8719 125.628 53.9845 127.786 53.9845C128.42 53.9845 129.038 54.0762 129.64 54.2218C133.439 43.6187 134.789 32.196 133.054 20.5819C133.044 20.5101 133.024 20.4423 133.014 20.3705C126.081 14.1207 118.038 9.08341 109.216 5.57764C99.7952 12.5712 91.1385 21.2838 83.7122 31.4881Z" fill="#FF5722"/>
<path d="M47.7949 27.4898C50.511 27.2346 53.251 27.0571 56.0348 27.0571C63.0903 27.0571 69.9443 27.8946 76.5211 29.4501C84.1229 19.1043 92.999 10.3079 102.643 3.30237C95.4698 1.16062 87.87 0 79.999 0C70.8277 0 62.0274 1.5774 53.8353 4.44504C49.4341 10.4037 45.7967 16.9486 42.9829 23.9162C45.0589 24.6401 46.7539 25.8745 47.7949 27.4898Z" fill="#FF5722"/>
<path d="M38.9946 41.3255C38.6236 41.4133 38.2547 41.4851 37.8878 41.5449C37.0064 46.5423 36.5198 51.6753 36.5198 56.926C36.5198 72.0479 40.3646 86.2525 47.061 98.6942C48.5048 98.5067 50.0044 98.5067 51.52 98.6743C52.3257 83.0538 56.2183 66.871 63.5709 51.2406C65.926 46.2312 68.5623 41.4691 71.422 36.9443C65.0585 35.4945 58.4339 34.7288 51.6277 34.7288C50.4093 34.7288 49.2068 34.7986 48.0003 34.8524C46.4827 37.8138 43.1923 40.3264 38.9946 41.3255Z" fill="#FF5722"/>
<path d="M78.6708 38.9563C75.9268 43.3435 73.3862 47.9501 71.1109 52.79C63.6287 68.6956 59.742 85.1675 59.0381 101.041C61.9396 102.619 64.2768 104.802 65.918 107.293C87.5469 102.686 105.762 91.0065 117.865 75.5017C117.244 73.5873 116.891 71.4675 116.891 69.23C116.891 67.4173 117.131 65.6843 117.543 64.073C107.13 52.5746 93.7947 43.7902 78.6708 38.9563Z" fill="#FF5722"/>
<path d="M35.0861 107.189C36.0233 104.972 37.5309 103.145 39.3975 101.739C32.7369 89.3175 28.932 75.1348 28.932 60.0528C28.932 53.5438 29.7097 47.2262 31.0558 41.122C29.287 40.5517 27.7794 39.6184 26.6905 38.396C20.1137 40.3184 13.84 42.9467 7.98709 46.2451C3.38651 56.2818 0.800049 67.4373 0.800049 79.201C0.800049 85.9613 1.65157 92.5201 3.24492 98.7819C12.6615 103.889 23.2805 107.311 34.5556 108.707C34.7012 108.196 34.8747 107.69 35.0861 107.189Z" fill="#FF5722"/>
<path d="M127.786 84.4716C126.22 84.4716 124.733 84.003 123.389 83.1694C110.851 99.5497 91.5414 111.778 68.5744 116.056C68.5385 117.701 68.2215 119.342 67.5574 120.915C67.2283 121.691 66.8156 122.409 66.3589 123.093C81.6443 136.641 101.63 144.985 123.584 145.32C129.85 141.182 135.489 136.177 140.335 130.477C140.507 128.248 140.626 126.002 140.626 123.727C140.626 109.339 137.14 95.7906 131.07 83.7677C130.033 84.2224 128.93 84.4716 127.786 84.4716Z" fill="#FF5722"/>
<path d="M61.0244 128.154C63.222 138.981 67.0748 149.091 72.4511 158.031C74.9378 158.264 77.4525 158.4 80.0011 158.4C93.9524 158.4 107.05 154.781 118.435 148.449C118.074 148.453 117.721 148.483 117.362 148.483C95.9386 148.481 76.3218 140.833 61.0244 128.154Z" fill="#FF5722"/>
<path d="M45.4457 127.961C39.856 125.6 35.9514 121.099 34.5854 116.183C23.9484 114.257 13.9934 110.508 5.20508 105.249C14.4082 131.674 37.2077 151.721 65.226 157.01C60.1767 148.754 56.4656 139.465 54.1503 129.536C51.3206 129.674 48.3373 129.183 45.4457 127.961Z" fill="#FF5722"/>
<path d="M34.779 23.6212C35.5228 23.4437 36.2627 23.328 36.9926 23.2562C39.5551 17.6865 42.656 12.4179 46.2655 7.53809C31.9134 14.3063 19.9283 25.2544 11.8718 38.8189C16.0237 36.4398 20.393 34.4057 24.9277 32.7087C25.4841 28.6824 29.3867 24.9054 34.779 23.6212Z" fill="#FF5722"/>
<path d="M159.2 79.201C159.2 58.0348 150.88 38.8228 137.354 24.6143C137.651 26.0082 137.912 27.4181 138.126 28.8459C139.671 39.1997 138.762 49.404 135.856 59.0119C137.605 61.716 138.682 65.2936 138.682 69.2301C138.682 72.6023 137.89 75.7092 136.564 78.2339C141.97 89.7164 145.029 102.523 145.029 116.058C145.029 119.093 144.86 122.086 144.563 125.045C153.766 112.103 159.2 96.2912 159.2 79.201Z" fill="#FF5722"/>
<path d="M48.2528 121.31C52.9284 123.286 58.091 121.643 59.7838 117.639C61.4765 113.635 59.0584 108.786 54.3828 106.81C49.7071 104.833 44.5445 106.476 42.8518 110.48C41.159 114.485 43.5771 119.333 48.2528 121.31Z" fill="#FF5722"/>
<path d="M127.786 75.6874C130.334 75.6874 132.4 72.7955 132.4 69.2282C132.4 65.6609 130.334 62.769 127.786 62.769C125.237 62.769 123.171 65.6609 123.171 69.2282C123.171 72.7955 125.237 75.6874 127.786 75.6874Z" fill="#FF5722"/>
<path d="M37.7821 36.2383C40.5654 35.5747 42.4195 33.3503 41.9235 31.2698C41.4275 29.1894 38.7692 28.0408 35.986 28.7043C33.2028 29.3679 31.3486 31.5923 31.8446 33.6727C32.3406 35.7532 34.9989 36.9018 37.7821 36.2383Z" fill="#FF5722"/>
<path d="M182.045 94V47.4545H200.409C203.939 47.4545 206.947 48.1288 209.432 49.4773C211.917 50.8106 213.811 52.6667 215.114 55.0455C216.432 57.4091 217.091 60.1364 217.091 63.2273C217.091 66.3182 216.424 69.0455 215.091 71.4091C213.758 73.7727 211.826 75.6136 209.295 76.9318C206.78 78.25 203.735 78.9091 200.159 78.9091H188.455V71.0227H198.568C200.462 71.0227 202.023 70.697 203.25 70.0455C204.492 69.3788 205.417 68.4621 206.023 67.2955C206.644 66.1136 206.955 64.7576 206.955 63.2273C206.955 61.6818 206.644 60.3333 206.023 59.1818C205.417 58.0151 204.492 57.1136 203.25 56.4773C202.008 55.8258 200.432 55.5 198.523 55.5H191.886V94H182.045ZM223.301 94V59.0909H232.688V65.1818H233.051C233.688 63.0152 234.756 61.3788 236.256 60.2727C237.756 59.1515 239.483 58.5909 241.438 58.5909C241.922 58.5909 242.445 58.6212 243.006 58.6818C243.566 58.7424 244.059 58.8258 244.483 58.9318V67.5227C244.028 67.3864 243.4 67.2652 242.597 67.1591C241.794 67.053 241.059 67 240.392 67C238.968 67 237.695 67.3106 236.574 67.9318C235.468 68.5379 234.589 69.3864 233.938 70.4773C233.301 71.5682 232.983 72.8258 232.983 74.25V94H223.301ZM263.636 94.6818C260.106 94.6818 257.053 93.9318 254.477 92.4318C251.917 90.9167 249.939 88.8106 248.545 86.1136C247.152 83.4015 246.455 80.2576 246.455 76.6818C246.455 73.0758 247.152 69.9242 248.545 67.2273C249.939 64.5152 251.917 62.4091 254.477 60.9091C257.053 59.3939 260.106 58.6364 263.636 58.6364C267.167 58.6364 270.212 59.3939 272.773 60.9091C275.348 62.4091 277.333 64.5152 278.727 67.2273C280.121 69.9242 280.818 73.0758 280.818 76.6818C280.818 80.2576 280.121 83.4015 278.727 86.1136C277.333 88.8106 275.348 90.9167 272.773 92.4318C270.212 93.9318 267.167 94.6818 263.636 94.6818ZM263.682 87.1818C265.288 87.1818 266.629 86.7273 267.705 85.8182C268.78 84.8939 269.591 83.6364 270.136 82.0455C270.697 80.4545 270.977 78.6439 270.977 76.6136C270.977 74.5833 270.697 72.7727 270.136 71.1818C269.591 69.5909 268.78 68.3333 267.705 67.4091C266.629 66.4848 265.288 66.0227 263.682 66.0227C262.061 66.0227 260.697 66.4848 259.591 67.4091C258.5 68.3333 257.674 69.5909 257.114 71.1818C256.568 72.7727 256.295 74.5833 256.295 76.6136C256.295 78.6439 256.568 80.4545 257.114 82.0455C257.674 83.6364 258.5 84.8939 259.591 85.8182C260.697 86.7273 262.061 87.1818 263.682 87.1818ZM287.114 94V59.0909H296.341V65.25H296.75C297.477 63.2045 298.689 61.5909 300.386 60.4091C302.083 59.2273 304.114 58.6364 306.477 58.6364C308.871 58.6364 310.909 59.2348 312.591 60.4318C314.273 61.6136 315.394 63.2197 315.955 65.25H316.318C317.03 63.25 318.318 61.6515 320.182 60.4545C322.061 59.2424 324.28 58.6364 326.841 58.6364C330.098 58.6364 332.742 59.6742 334.773 61.75C336.818 63.8106 337.841 66.7348 337.841 70.5227V94H328.182V72.4318C328.182 70.4924 327.667 69.0379 326.636 68.0682C325.606 67.0985 324.318 66.6136 322.773 66.6136C321.015 66.6136 319.644 67.1742 318.659 68.2955C317.674 69.4015 317.182 70.8636 317.182 72.6818V94H307.795V72.2273C307.795 70.5152 307.303 69.1515 306.318 68.1364C305.348 67.1212 304.068 66.6136 302.477 66.6136C301.402 66.6136 300.432 66.8864 299.568 67.4318C298.72 67.9621 298.045 68.7121 297.545 69.6818C297.045 70.6364 296.795 71.7576 296.795 73.0455V94H287.114ZM345.489 107.091V59.0909H355.034V64.9545H355.466C355.89 64.0152 356.504 63.0606 357.307 62.0909C358.125 61.1061 359.186 60.2879 360.489 59.6364C361.807 58.9697 363.443 58.6364 365.398 58.6364C367.943 58.6364 370.292 59.303 372.443 60.6364C374.595 61.9545 376.314 63.947 377.602 66.6136C378.89 69.2652 379.534 72.5909 379.534 76.5909C379.534 80.4848 378.905 83.7727 377.648 86.4545C376.405 89.1212 374.708 91.1439 372.557 92.5227C370.42 93.8864 368.027 94.5682 365.375 94.5682C363.496 94.5682 361.898 94.2576 360.58 93.6364C359.277 93.0152 358.208 92.2348 357.375 91.2955C356.542 90.3409 355.905 89.3788 355.466 88.4091H355.17V107.091H345.489ZM354.966 76.5455C354.966 78.6212 355.254 80.4318 355.83 81.9773C356.405 83.5227 357.239 84.7273 358.33 85.5909C359.42 86.4394 360.746 86.8636 362.307 86.8636C363.883 86.8636 365.216 86.4318 366.307 85.5682C367.398 84.6894 368.223 83.4773 368.784 81.9318C369.36 80.3712 369.648 78.5758 369.648 76.5455C369.648 74.5303 369.367 72.7576 368.807 71.2273C368.246 69.697 367.42 68.5 366.33 67.6364C365.239 66.7727 363.898 66.3409 362.307 66.3409C360.731 66.3409 359.398 66.7576 358.307 67.5909C357.231 68.4242 356.405 69.6061 355.83 71.1364C355.254 72.6667 354.966 74.4697 354.966 76.5455ZM404.557 59.0909V66.3636H383.534V59.0909H404.557ZM388.307 50.7273H397.989V83.2727C397.989 84.1667 398.125 84.8636 398.398 85.3636C398.67 85.8485 399.049 86.1894 399.534 86.3864C400.034 86.5833 400.61 86.6818 401.261 86.6818C401.716 86.6818 402.17 86.6439 402.625 86.5682C403.08 86.4773 403.428 86.4091 403.67 86.3636L405.193 93.5682C404.708 93.7197 404.027 93.8939 403.148 94.0909C402.269 94.303 401.201 94.4318 399.943 94.4773C397.61 94.5682 395.564 94.2576 393.807 93.5455C392.064 92.8333 390.708 91.7273 389.739 90.2273C388.769 88.7273 388.292 86.8333 388.307 84.5455V50.7273ZM425.858 94V47.4545H456.676V55.5682H435.699V66.6591H454.631V74.7727H435.699V94H425.858ZM472.795 47.4545V94H463.114V47.4545H472.795ZM496.324 94.6818C492.794 94.6818 489.741 93.9318 487.165 92.4318C484.604 90.9167 482.627 88.8106 481.233 86.1136C479.839 83.4015 479.142 80.2576 479.142 76.6818C479.142 73.0758 479.839 69.9242 481.233 67.2273C482.627 64.5152 484.604 62.4091 487.165 60.9091C489.741 59.3939 492.794 58.6364 496.324 58.6364C499.854 58.6364 502.9 59.3939 505.46 60.9091C508.036 62.4091 510.021 64.5152 511.415 67.2273C512.809 69.9242 513.506 73.0758 513.506 76.6818C513.506 80.2576 512.809 83.4015 511.415 86.1136C510.021 88.8106 508.036 90.9167 505.46 92.4318C502.9 93.9318 499.854 94.6818 496.324 94.6818ZM496.369 87.1818C497.975 87.1818 499.316 86.7273 500.392 85.8182C501.468 84.8939 502.278 83.6364 502.824 82.0455C503.384 80.4545 503.665 78.6439 503.665 76.6136C503.665 74.5833 503.384 72.7727 502.824 71.1818C502.278 69.5909 501.468 68.3333 500.392 67.4091C499.316 66.4848 497.975 66.0227 496.369 66.0227C494.748 66.0227 493.384 66.4848 492.278 67.4091C491.188 68.3333 490.362 69.5909 489.801 71.1818C489.256 72.7727 488.983 74.5833 488.983 76.6136C488.983 78.6439 489.256 80.4545 489.801 82.0455C490.362 83.6364 491.188 84.8939 492.278 85.8182C493.384 86.7273 494.748 87.1818 496.369 87.1818ZM525.812 94L516.312 59.0909H526.108L531.517 82.5455H531.835L537.472 59.0909H547.085L552.812 82.4091H553.108L558.426 59.0909H568.199L558.722 94H548.472L542.472 72.0455H542.04L536.04 94H525.812Z" fill="#303841"/>
</svg>
